<svg width="386" height="214" viewBox="0 0 386 214" fill="none" xmlns="http://www.w3.org/2000/svg">
<rect x="0.5" y="0.5" width="385" height="213" fill="#FF1313" stroke="black"/>
<path fill-rule="evenodd" clip-rule="evenodd" d="M136.12 47.2348C134.571 44.4689 132.143 42.1346 129.114 40.5007C126.086 38.8669 122.581 38 119.003 38C115.425 38 111.92 38.8669 108.891 40.5007C105.863 42.1346 103.434 44.4689 101.886 47.2348L47.2561 139.389C40.7203 150.39 48.9793 165 64.3666 165H173.632C189.026 165 197.272 150.396 190.749 139.389L136.12 47.2348ZM119.003 78.4164C120.788 78.4164 122.5 79.0245 123.762 80.107C125.025 81.1896 125.734 82.6577 125.734 84.1886V113.05C125.734 114.581 125.025 116.049 123.762 117.131C122.5 118.214 120.788 118.822 119.003 118.822C117.218 118.822 115.506 118.214 114.243 117.131C112.981 116.049 112.272 114.581 112.272 113.05V84.1886C112.272 82.6577 112.981 81.1896 114.243 80.107C115.506 79.0245 117.218 78.4164 119.003 78.4164ZM119.003 127.48C120.788 127.48 122.5 128.089 123.762 129.171C125.025 130.254 125.734 131.722 125.734 133.253V136.139C125.734 137.67 125.025 139.138 123.762 140.22C122.5 141.303 120.788 141.911 119.003 141.911C117.218 141.911 115.506 141.303 114.243 140.22C112.981 139.138 112.272 137.67 112.272 136.139V133.253C112.272 131.722 112.981 130.254 114.243 129.171C115.506 128.089 117.218 127.48 119.003 127.48Z" fill="black"/>
<path d="M229.841 165H225.409L238.227 130.091H242.591L255.409 165H250.977L240.545 135.614H240.273L229.841 165ZM231.477 151.364H249.341V155.114H231.477V151.364ZM264.324 130.091V165H260.301V130.091H264.324ZM282.669 165.545C280.146 165.545 277.97 164.989 276.14 163.875C274.322 162.75 272.919 161.182 271.93 159.17C270.953 157.148 270.464 154.795 270.464 152.114C270.464 149.432 270.953 147.068 271.93 145.023C272.919 142.966 274.294 141.364 276.055 140.216C277.828 139.057 279.896 138.477 282.26 138.477C283.623 138.477 284.97 138.705 286.3 139.159C287.629 139.614 288.839 140.352 289.93 141.375C291.021 142.386 291.89 143.727 292.538 145.398C293.186 147.068 293.51 149.125 293.51 151.568V153.273H273.328V149.795H289.419C289.419 148.318 289.123 147 288.532 145.841C287.953 144.682 287.123 143.767 286.044 143.097C284.976 142.426 283.714 142.091 282.26 142.091C280.657 142.091 279.271 142.489 278.101 143.284C276.942 144.068 276.05 145.091 275.425 146.352C274.8 147.614 274.487 148.966 274.487 150.409V152.727C274.487 154.705 274.828 156.381 275.51 157.756C276.203 159.119 277.163 160.159 278.39 160.875C279.618 161.58 281.044 161.932 282.669 161.932C283.726 161.932 284.68 161.784 285.532 161.489C286.396 161.182 287.14 160.727 287.765 160.125C288.39 159.511 288.873 158.75 289.214 157.841L293.101 158.932C292.692 160.25 292.004 161.409 291.038 162.409C290.072 163.398 288.879 164.17 287.459 164.727C286.038 165.273 284.442 165.545 282.669 165.545ZM299.629 165V138.818H303.515V142.773H303.788C304.265 141.477 305.129 140.426 306.379 139.619C307.629 138.812 309.038 138.409 310.606 138.409C310.902 138.409 311.271 138.415 311.714 138.426C312.157 138.437 312.493 138.455 312.72 138.477V142.568C312.584 142.534 312.271 142.483 311.782 142.415C311.305 142.335 310.8 142.295 310.265 142.295C308.993 142.295 307.856 142.562 306.856 143.097C305.868 143.619 305.084 144.347 304.504 145.278C303.936 146.199 303.652 147.25 303.652 148.432V165H299.629ZM330.515 138.818V142.227H316.947V138.818H330.515ZM320.902 132.545H324.925V157.5C324.925 158.636 325.089 159.489 325.419 160.057C325.76 160.614 326.192 160.989 326.714 161.182C327.248 161.364 327.811 161.455 328.402 161.455C328.845 161.455 329.209 161.432 329.493 161.386C329.777 161.33 330.004 161.284 330.175 161.25L330.993 164.864C330.72 164.966 330.339 165.068 329.851 165.17C329.362 165.284 328.743 165.341 327.993 165.341C326.856 165.341 325.743 165.097 324.652 164.608C323.572 164.119 322.675 163.375 321.959 162.375C321.254 161.375 320.902 160.114 320.902 158.591V132.545Z" fill="black"/>
<path d="M279.182 95.4773C276.613 95.4773 274.426 94.7784 272.619 93.3807C270.812 91.9716 269.432 89.9318 268.477 87.2614C267.523 84.5795 267.045 81.3409 267.045 77.5455C267.045 73.7727 267.523 70.5511 268.477 67.8807C269.443 65.1989 270.829 63.1534 272.636 61.7443C274.454 60.3239 276.636 59.6136 279.182 59.6136C281.727 59.6136 283.903 60.3239 285.71 61.7443C287.528 63.1534 288.915 65.1989 289.869 67.8807C290.835 70.5511 291.318 73.7727 291.318 77.5455C291.318 81.3409 290.841 84.5795 289.886 87.2614C288.932 89.9318 287.551 91.9716 285.744 93.3807C283.937 94.7784 281.75 95.4773 279.182 95.4773ZM279.182 91.7273C281.727 91.7273 283.704 90.5 285.113 88.0455C286.523 85.5909 287.227 82.0909 287.227 77.5455C287.227 74.5227 286.903 71.9489 286.256 69.8239C285.619 67.6989 284.699 66.0795 283.494 64.9659C282.301 63.8523 280.863 63.2955 279.182 63.2955C276.659 63.2955 274.687 64.5398 273.267 67.0284C271.846 69.5057 271.136 73.0114 271.136 77.5455C271.136 80.5682 271.454 83.1364 272.091 85.25C272.727 87.3636 273.642 88.9716 274.835 90.0739C276.04 91.1761 277.488 91.7273 279.182 91.7273Z" fill="black"/>
</svg>
