<svg width="386" height="214" viewBox="0 0 386 214" fill="none" xmlns="http://www.w3.org/2000/svg">
<rect x="0.5" y="0.5" width="385" height="213" fill="#FF0000" stroke="black"/>
<path d="M52.5466 28.0156V52.6967L58.0107 47.8691C60.1598 45.9256 63.6349 45.9256 65.5782 47.8691C67.9101 49.8336 67.9101 53.0102 65.5782 54.7865L50.9462 68.1615C49.0029 70.2932 45.5278 70.2932 43.3788 68.1615L28.7537 54.7865C26.6092 53.0102 26.6092 49.8336 28.7537 47.8691C30.8959 45.9256 34.371 45.9256 36.5132 47.8691L41.5726 52.6967V28.0156C41.5726 25.2466 44.2247 23 47.0596 23C50.3061 23 52.5466 25.2466 52.5466 28.0156ZM96.4424 64.7969C96.4424 69.4154 92.5558 73.1562 87.2974 73.1562C82.4506 73.1562 78.1525 69.4154 78.1525 64.7969C78.1525 60.1783 82.4506 56.4375 87.2974 56.4375C92.5558 56.4375 96.4424 60.1783 96.4424 64.7969ZM56.2046 84.8594C56.2046 89.4779 52.318 93.2188 47.0596 93.2188C42.2128 93.2188 37.9146 89.4779 37.9146 84.8594C37.9146 80.2408 42.2128 76.5 47.0596 76.5C52.318 76.5 56.2046 80.2408 56.2046 84.8594ZM118.39 84.8594C118.39 80.2408 122.688 76.5 127.535 76.5C132.794 76.5 136.68 80.2408 136.68 84.8594C136.68 89.4779 132.794 93.2188 127.535 93.2188C122.688 93.2188 118.39 89.4779 118.39 84.8594ZM59.8626 123.312C59.8626 127.012 56.799 130 52.5466 130H41.5726C37.7317 130 34.2567 127.012 34.2567 123.312V115.267L28.3193 125.695C26.8812 128.119 23.5548 129.039 20.8867 127.722C18.2187 126.405 17.2196 123.375 18.6576 120.93L27.3156 106.238C30.825 100.282 37.6403 96.5625 45.0249 96.5625H49.5059C53.2325 96.5625 56.799 97.5029 59.8854 99.1957L67.5443 86.176C71.0651 80.2199 77.8781 76.3119 85.2627 76.3119H89.7437C97.1283 76.3119 103.941 80.2199 107.462 86.176L115.121 99.1957C118.207 97.5029 121.774 96.5625 125.501 96.5625H129.982C137.366 96.5625 144.179 100.282 147.7 106.238L156.342 120.93C157.782 123.375 156.776 126.405 154.124 127.722C151.449 129.039 148.111 128.119 146.694 125.695L140.338 115.267V123.312C140.338 127.012 137.275 130 133.022 130H122.048C118.207 130 114.732 127.012 114.732 123.312V115.267L108.788 125.695C107.348 128.119 104.033 129.039 101.358 127.722C98.6829 126.405 97.6998 123.375 99.1402 120.93L107.439 106.824C107.051 106.489 106.708 106.092 106.456 105.632L100.1 95.2041V106.594C100.1 110.293 97.0368 113.281 92.7844 113.281H81.8105C77.9696 113.281 74.4945 110.293 74.4945 106.594V95.2041L68.5503 105.632C68.093 106.092 67.9558 106.489 67.5672 106.824L75.8662 120.93C77.3066 123.375 76.3006 126.405 73.6486 127.722C70.9737 129.039 67.6358 128.119 66.2183 125.695L59.8626 115.267V123.312ZM109.222 54.7865C107.096 53.0102 107.096 49.8336 109.222 47.8691C111.372 45.9256 114.847 45.9256 116.79 47.8691L122.048 52.6967V28.0156C122.048 25.2466 124.7 23 127.535 23C130.782 23 133.022 25.2466 133.022 28.0156V52.6967L138.486 47.8691C140.635 45.9256 144.111 45.9256 146.054 47.8691C148.386 49.8336 148.386 53.0102 146.054 54.7865L131.422 68.1615C129.479 70.2932 126.004 70.2932 123.854 68.1615L109.222 54.7865Z" fill="black"/>
<path d="M264.704 115.477C262.704 115.477 260.903 115.08 259.301 114.284C257.699 113.489 256.415 112.398 255.449 111.011C254.483 109.625 253.954 108.045 253.863 106.273H257.954C258.113 107.852 258.829 109.159 260.102 110.193C261.386 111.216 262.92 111.727 264.704 111.727C266.136 111.727 267.409 111.392 268.523 110.722C269.648 110.051 270.528 109.131 271.165 107.96C271.812 106.778 272.136 105.443 272.136 103.955C272.136 102.432 271.801 101.074 271.131 99.8807C270.471 98.6761 269.562 97.7273 268.403 97.0341C267.244 96.3409 265.92 95.9886 264.432 95.9773C263.363 95.9659 262.267 96.1307 261.142 96.4716C260.017 96.8011 259.091 97.2273 258.363 97.75L254.409 97.2727L256.523 80.0909H274.659V83.8409H260.068L258.841 94.1364H259.045C259.761 93.5682 260.659 93.0966 261.738 92.7216C262.818 92.3466 263.943 92.1591 265.113 92.1591C267.25 92.1591 269.153 92.6705 270.824 93.6932C272.506 94.7045 273.824 96.0909 274.778 97.8523C275.744 99.6136 276.227 101.625 276.227 103.886C276.227 106.114 275.727 108.102 274.727 109.852C273.738 111.591 272.375 112.966 270.636 113.977C268.898 114.977 266.92 115.477 264.704 115.477Z" fill="black"/>
<path d="M172.182 141.818V168H169.114L154.847 147.443H154.591V168H151.42V141.818H154.489L168.807 162.426H169.062V141.818H172.182ZM186.35 168.409C184.458 168.409 182.826 167.991 181.453 167.156C180.09 166.312 179.037 165.136 178.296 163.628C177.563 162.111 177.196 160.347 177.196 158.335C177.196 156.324 177.563 154.551 178.296 153.017C179.037 151.474 180.069 150.273 181.39 149.412C182.719 148.543 184.27 148.108 186.043 148.108C187.066 148.108 188.076 148.278 189.073 148.619C190.07 148.96 190.978 149.514 191.796 150.281C192.614 151.04 193.266 152.045 193.752 153.298C194.238 154.551 194.48 156.094 194.48 157.926V159.205H179.344V156.597H191.412C191.412 155.489 191.191 154.5 190.748 153.631C190.313 152.761 189.691 152.075 188.881 151.572C188.08 151.07 187.134 150.818 186.043 150.818C184.841 150.818 183.801 151.116 182.924 151.713C182.054 152.301 181.385 153.068 180.917 154.014C180.448 154.96 180.213 155.974 180.213 157.057V158.795C180.213 160.278 180.469 161.536 180.98 162.567C181.5 163.589 182.221 164.369 183.141 164.906C184.061 165.435 185.131 165.699 186.35 165.699C187.142 165.699 187.858 165.588 188.498 165.366C189.145 165.136 189.703 164.795 190.172 164.344C190.641 163.884 191.003 163.312 191.259 162.631L194.174 163.449C193.867 164.438 193.351 165.307 192.627 166.057C191.902 166.798 191.007 167.378 189.942 167.795C188.877 168.205 187.679 168.409 186.35 168.409ZM203.519 168L197.536 148.364H200.706L204.951 163.398H205.155L209.348 148.364H212.57L216.712 163.347H216.917L221.161 148.364H224.331L218.348 168H215.382L211.087 152.915H210.78L206.485 168H203.519ZM257.059 168H248.979V141.818H257.417C259.956 141.818 262.13 142.342 263.936 143.391C265.743 144.43 267.128 145.926 268.091 147.878C269.054 149.821 269.536 152.148 269.536 154.858C269.536 157.585 269.05 159.933 268.078 161.902C267.107 163.862 265.692 165.371 263.834 166.428C261.976 167.476 259.718 168 257.059 168ZM252.15 165.188H256.854C259.019 165.188 260.813 164.77 262.236 163.935C263.659 163.099 264.721 161.911 265.419 160.368C266.118 158.825 266.468 156.989 266.468 154.858C266.468 152.744 266.123 150.925 265.432 149.399C264.742 147.865 263.711 146.689 262.338 145.871C260.966 145.044 259.257 144.631 257.212 144.631H252.15V165.188ZM282.422 168.409C280.65 168.409 279.094 167.987 277.756 167.143C276.426 166.3 275.387 165.119 274.637 163.602C273.895 162.085 273.525 160.312 273.525 158.284C273.525 156.239 273.895 154.453 274.637 152.928C275.387 151.402 276.426 150.217 277.756 149.374C279.094 148.53 280.65 148.108 282.422 148.108C284.195 148.108 285.746 148.53 287.076 149.374C288.414 150.217 289.453 151.402 290.195 152.928C290.945 154.453 291.32 156.239 291.32 158.284C291.32 160.312 290.945 162.085 290.195 163.602C289.453 165.119 288.414 166.3 287.076 167.143C285.746 167.987 284.195 168.409 282.422 168.409ZM282.422 165.699C283.769 165.699 284.877 165.354 285.746 164.663C286.615 163.973 287.259 163.065 287.676 161.94C288.094 160.815 288.303 159.597 288.303 158.284C288.303 156.972 288.094 155.749 287.676 154.615C287.259 153.482 286.615 152.565 285.746 151.866C284.877 151.168 283.769 150.818 282.422 150.818C281.076 150.818 279.968 151.168 279.098 151.866C278.229 152.565 277.586 153.482 277.168 154.615C276.75 155.749 276.542 156.972 276.542 158.284C276.542 159.597 276.75 160.815 277.168 161.94C277.586 163.065 278.229 163.973 279.098 164.663C279.968 165.354 281.076 165.699 282.422 165.699ZM298.942 156.188V168H295.925V148.364H298.84V151.432H299.096C299.556 150.435 300.255 149.634 301.192 149.028C302.13 148.415 303.34 148.108 304.823 148.108C306.153 148.108 307.316 148.381 308.313 148.926C309.31 149.463 310.086 150.281 310.64 151.381C311.194 152.472 311.471 153.852 311.471 155.523V168H308.454V155.727C308.454 154.185 308.053 152.983 307.252 152.122C306.451 151.253 305.352 150.818 303.954 150.818C302.991 150.818 302.13 151.027 301.371 151.445C300.621 151.862 300.029 152.472 299.594 153.273C299.16 154.074 298.942 155.045 298.942 156.188ZM325.217 168.409C323.325 168.409 321.693 167.991 320.321 167.156C318.957 166.312 317.904 165.136 317.163 163.628C316.43 162.111 316.064 160.347 316.064 158.335C316.064 156.324 316.43 154.551 317.163 153.017C317.904 151.474 318.936 150.273 320.257 149.412C321.586 148.543 323.137 148.108 324.91 148.108C325.933 148.108 326.943 148.278 327.94 148.619C328.937 148.96 329.845 149.514 330.663 150.281C331.481 151.04 332.133 152.045 332.619 153.298C333.105 154.551 333.348 156.094 333.348 157.926V159.205H318.211V156.597H330.279C330.279 155.489 330.058 154.5 329.615 153.631C329.18 152.761 328.558 152.075 327.748 151.572C326.947 151.07 326.001 150.818 324.91 150.818C323.708 150.818 322.669 151.116 321.791 151.713C320.922 152.301 320.252 153.068 319.784 154.014C319.315 154.96 319.081 155.974 319.081 157.057V158.795C319.081 160.278 319.336 161.536 319.848 162.567C320.368 163.589 321.088 164.369 322.008 164.906C322.929 165.435 323.998 165.699 325.217 165.699C326.01 165.699 326.725 165.588 327.365 165.366C328.012 165.136 328.571 164.795 329.039 164.344C329.508 163.884 329.87 163.312 330.126 162.631L333.041 163.449C332.734 164.438 332.218 165.307 331.494 166.057C330.77 166.798 329.875 167.378 328.809 167.795C327.744 168.205 326.547 168.409 325.217 168.409ZM337.937 168V148.364H340.852V151.33H341.056C341.414 150.358 342.062 149.57 343 148.964C343.937 148.359 344.994 148.057 346.17 148.057C346.392 148.057 346.669 148.061 347.001 148.07C347.333 148.078 347.585 148.091 347.755 148.108V151.176C347.653 151.151 347.419 151.112 347.052 151.061C346.694 151.001 346.315 150.972 345.914 150.972C344.96 150.972 344.108 151.172 343.358 151.572C342.616 151.964 342.028 152.51 341.593 153.209C341.167 153.899 340.954 154.687 340.954 155.574V168H337.937ZM365.241 152.761L362.531 153.528C362.36 153.077 362.109 152.638 361.776 152.212C361.452 151.777 361.009 151.419 360.447 151.138C359.884 150.857 359.164 150.716 358.286 150.716C357.085 150.716 356.083 150.993 355.282 151.547C354.489 152.092 354.093 152.787 354.093 153.631C354.093 154.381 354.366 154.973 354.911 155.408C355.457 155.842 356.309 156.205 357.468 156.494L360.383 157.21C362.138 157.636 363.447 158.288 364.308 159.166C365.168 160.036 365.599 161.156 365.599 162.528C365.599 163.653 365.275 164.659 364.627 165.545C363.988 166.432 363.093 167.131 361.942 167.642C360.792 168.153 359.454 168.409 357.928 168.409C355.925 168.409 354.268 167.974 352.955 167.105C351.643 166.236 350.812 164.966 350.462 163.295L353.326 162.58C353.599 163.636 354.114 164.429 354.873 164.957C355.64 165.486 356.641 165.75 357.877 165.75C359.283 165.75 360.4 165.452 361.227 164.855C362.062 164.25 362.479 163.526 362.479 162.682C362.479 162 362.241 161.429 361.763 160.969C361.286 160.5 360.553 160.151 359.565 159.92L356.292 159.153C354.494 158.727 353.173 158.067 352.329 157.172C351.494 156.268 351.076 155.139 351.076 153.784C351.076 152.676 351.387 151.696 352.009 150.844C352.64 149.991 353.496 149.322 354.579 148.837C355.67 148.351 356.906 148.108 358.286 148.108C360.229 148.108 361.755 148.534 362.863 149.386C363.979 150.239 364.772 151.364 365.241 152.761Z" fill="black"/>
</svg>
