<svg width="387" height="214" viewBox="0 0 387 214" fill="none" xmlns="http://www.w3.org/2000/svg">
<rect x="0.681641" y="0.5" width="385" height="213" fill="#FC0000" stroke="black"/>
<path d="M41 18H54V20.1782H41V18ZM41 25.9082H54V28.0864H41V25.9082ZM41 33.8218H54V36H41V33.8218Z" fill="black"/>
<path d="M74 98C84.6049 97.991 94.772 94.8742 102.271 89.3333C109.77 83.7924 113.988 76.2799 114 68.444V43H34V68.444C34.0142 76.2785 38.232 83.7892 45.7287 89.3296C53.2254 94.87 63.3894 97.988 73.9923 98H74ZM39.0509 46.3804H53.1748V48.6832H39.0509V46.3804ZM39.0509 54.7464H53.1748V57.0492H39.0509V54.7464ZM39.0509 63.0727H53.1748V65.3755H39.0509V63.0727ZM39.0509 71.4387H53.1748V73.7415H39.0509V71.4387Z" fill="black"/>
<path d="M119.277 13.0055H21V69.7698C21.0158 78.7621 25.3444 87.474 33.2523 94.4292C41.1602 101.384 52.1611 106.155 64.3908 107.933L64.7392 107.977V109.45C64.7392 110.596 66.4581 111.497 68.6012 111.497H71.8574V119.444H70.6382C70.0845 119.445 69.5541 119.605 69.1625 119.887C68.771 120.169 68.5502 120.551 68.5482 120.95V132.696C68.5482 133.526 69.4796 134.192 70.6231 134.192H71.8498V144H78.135V134.208H79.3618C79.9155 134.207 80.4459 134.048 80.8375 133.765C81.229 133.483 81.4498 133.101 81.4518 132.702V120.939C81.4498 120.54 81.229 120.158 80.8375 119.876C80.4459 119.594 79.9155 119.435 79.3618 119.433H78.135V111.486H81.3912C83.557 111.486 85.2608 110.58 85.2608 109.439V107.966C110.334 104.358 128.97 88.633 129 69.7643V13L119.277 13.0055ZM119.277 69.7698C119.066 78.1359 114.308 86.1083 106.027 91.9722C97.7451 97.8361 86.6013 101.123 74.9921 101.126C63.383 101.129 52.2361 97.8473 43.9489 91.9875C35.6617 86.1277 30.8963 78.1577 30.6777 69.7916V19.9918H119.277V69.7698Z" fill="black"/>
<path d="M266.704 107.477C264.704 107.477 262.903 107.08 261.301 106.284C259.699 105.489 258.415 104.398 257.449 103.011C256.483 101.625 255.954 100.045 255.863 98.2727H259.954C260.113 99.8523 260.829 101.159 262.102 102.193C263.386 103.216 264.92 103.727 266.704 103.727C268.136 103.727 269.409 103.392 270.523 102.722C271.648 102.051 272.528 101.131 273.165 99.9602C273.812 98.7784 274.136 97.4432 274.136 95.9545C274.136 94.4318 273.801 93.0739 273.131 91.8807C272.471 90.6761 271.562 89.7273 270.403 89.0341C269.244 88.3409 267.92 87.9886 266.432 87.9773C265.363 87.9659 264.267 88.1307 263.142 88.4716C262.017 88.8011 261.091 89.2273 260.363 89.75L256.409 89.2727L258.523 72.0909H276.659V75.8409H262.068L260.841 86.1364H261.045C261.761 85.5682 262.659 85.0966 263.738 84.7216C264.818 84.3466 265.943 84.1591 267.113 84.1591C269.25 84.1591 271.153 84.6705 272.824 85.6932C274.506 86.7045 275.824 88.0909 276.778 89.8523C277.744 91.6136 278.227 93.625 278.227 95.8864C278.227 98.1136 277.727 100.102 276.727 101.852C275.738 103.591 274.375 104.966 272.636 105.977C270.898 106.977 268.92 107.477 266.704 107.477ZM295.907 107.477C293.907 107.477 292.106 107.08 290.504 106.284C288.902 105.489 287.618 104.398 286.652 103.011C285.686 101.625 285.157 100.045 285.067 98.2727H289.157C289.317 99.8523 290.032 101.159 291.305 102.193C292.589 103.216 294.123 103.727 295.907 103.727C297.339 103.727 298.612 103.392 299.726 102.722C300.851 102.051 301.731 101.131 302.368 99.9602C303.015 98.7784 303.339 97.4432 303.339 95.9545C303.339 94.4318 303.004 93.0739 302.334 91.8807C301.675 90.6761 300.765 89.7273 299.606 89.0341C298.447 88.3409 297.123 87.9886 295.635 87.9773C294.567 87.9659 293.47 88.1307 292.345 88.4716C291.22 88.8011 290.294 89.2273 289.567 89.75L285.612 89.2727L287.726 72.0909H305.862V75.8409H291.271L290.044 86.1364H290.248C290.964 85.5682 291.862 85.0966 292.942 84.7216C294.021 84.3466 295.146 84.1591 296.317 84.1591C298.453 84.1591 300.356 84.6705 302.027 85.6932C303.709 86.7045 305.027 88.0909 305.981 89.8523C306.947 91.6136 307.43 93.625 307.43 95.8864C307.43 98.1136 306.93 100.102 305.93 101.852C304.942 103.591 303.578 104.966 301.839 105.977C300.101 106.977 298.123 107.477 295.907 107.477ZM331.997 100.455V98.6136C331.997 97.3409 332.258 96.1761 332.781 95.1193C333.315 94.0511 334.088 93.1989 335.099 92.5625C336.122 91.9148 337.361 91.5909 338.815 91.5909C340.292 91.5909 341.531 91.9148 342.531 92.5625C343.531 93.1989 344.287 94.0511 344.798 95.1193C345.309 96.1761 345.565 97.3409 345.565 98.6136V100.455C345.565 101.727 345.304 102.898 344.781 103.966C344.27 105.023 343.508 105.875 342.497 106.523C341.497 107.159 340.27 107.477 338.815 107.477C337.338 107.477 336.094 107.159 335.082 106.523C334.071 105.875 333.304 105.023 332.781 103.966C332.258 102.898 331.997 101.727 331.997 100.455ZM335.474 98.6136V100.455C335.474 101.511 335.724 102.46 336.224 103.301C336.724 104.131 337.588 104.545 338.815 104.545C340.008 104.545 340.849 104.131 341.338 103.301C341.838 102.46 342.088 101.511 342.088 100.455V98.6136C342.088 97.5568 341.849 96.6136 341.372 95.7841C340.895 94.9432 340.042 94.5227 338.815 94.5227C337.622 94.5227 336.764 94.9432 336.241 95.7841C335.73 96.6136 335.474 97.5568 335.474 98.6136ZM314.611 80.4773V78.6364C314.611 77.3636 314.872 76.1989 315.395 75.142C315.929 74.0739 316.702 73.2216 317.713 72.5852C318.736 71.9375 319.974 71.6136 321.429 71.6136C322.906 71.6136 324.145 71.9375 325.145 72.5852C326.145 73.2216 326.9 74.0739 327.412 75.142C327.923 76.1989 328.179 77.3636 328.179 78.6364V80.4773C328.179 81.75 327.917 82.9205 327.395 83.9886C326.883 85.0455 326.122 85.8977 325.111 86.5455C324.111 87.1818 322.883 87.5 321.429 87.5C319.952 87.5 318.707 87.1818 317.696 86.5455C316.684 85.8977 315.917 85.0455 315.395 83.9886C314.872 82.9205 314.611 81.75 314.611 80.4773ZM318.088 78.6364V80.4773C318.088 81.5341 318.338 82.483 318.838 83.3239C319.338 84.1534 320.202 84.5682 321.429 84.5682C322.622 84.5682 323.463 84.1534 323.952 83.3239C324.452 82.483 324.702 81.5341 324.702 80.4773V78.6364C324.702 77.5795 324.463 76.6364 323.986 75.8068C323.508 74.9659 322.656 74.5455 321.429 74.5455C320.236 74.5455 319.378 74.9659 318.855 75.8068C318.344 76.6364 318.088 77.5795 318.088 78.6364ZM315.906 107L339.906 72.0909H343.792L319.792 107H315.906Z" fill="black"/>
<path d="M126.426 168H123.102L132.716 141.818H135.988L145.602 168H142.278L134.454 145.96H134.25L126.426 168ZM127.653 157.773H141.051V160.585H127.653V157.773ZM162.867 148.364L155.606 168H152.537L145.276 148.364H148.549L153.969 164.011H154.174L159.594 148.364H162.867ZM172.03 168.46C170.786 168.46 169.656 168.226 168.642 167.757C167.628 167.28 166.823 166.594 166.226 165.699C165.629 164.795 165.331 163.705 165.331 162.426C165.331 161.301 165.553 160.389 165.996 159.69C166.439 158.983 167.031 158.429 167.773 158.028C168.514 157.628 169.333 157.33 170.227 157.134C171.131 156.929 172.039 156.767 172.95 156.648C174.144 156.494 175.111 156.379 175.852 156.303C176.602 156.217 177.148 156.077 177.489 155.881C177.838 155.685 178.013 155.344 178.013 154.858V154.756C178.013 153.494 177.668 152.514 176.977 151.815C176.296 151.116 175.26 150.767 173.871 150.767C172.431 150.767 171.301 151.082 170.483 151.713C169.665 152.344 169.09 153.017 168.757 153.733L165.894 152.71C166.405 151.517 167.087 150.588 167.939 149.923C168.8 149.25 169.737 148.781 170.752 148.517C171.774 148.244 172.78 148.108 173.769 148.108C174.399 148.108 175.124 148.185 175.942 148.338C176.769 148.483 177.566 148.786 178.333 149.246C179.108 149.706 179.752 150.401 180.263 151.33C180.774 152.259 181.03 153.503 181.03 155.062V168H178.013V165.341H177.86C177.655 165.767 177.314 166.223 176.837 166.709C176.36 167.195 175.725 167.608 174.932 167.949C174.139 168.29 173.172 168.46 172.03 168.46ZM172.49 165.75C173.683 165.75 174.689 165.516 175.507 165.047C176.334 164.578 176.956 163.973 177.374 163.232C177.8 162.49 178.013 161.71 178.013 160.892V158.131C177.885 158.284 177.604 158.425 177.169 158.553C176.743 158.672 176.249 158.778 175.686 158.872C175.132 158.957 174.591 159.034 174.063 159.102C173.543 159.162 173.121 159.213 172.797 159.256C172.013 159.358 171.28 159.524 170.598 159.754C169.925 159.976 169.379 160.312 168.962 160.764C168.553 161.207 168.348 161.812 168.348 162.58C168.348 163.628 168.736 164.42 169.512 164.957C170.296 165.486 171.289 165.75 172.49 165.75ZM186.537 168V148.364H189.554V168H186.537ZM188.071 145.091C187.483 145.091 186.976 144.891 186.55 144.49C186.132 144.089 185.923 143.608 185.923 143.045C185.923 142.483 186.132 142.001 186.55 141.601C186.976 141.2 187.483 141 188.071 141C188.659 141 189.162 141.2 189.579 141.601C190.006 142.001 190.219 142.483 190.219 143.045C190.219 143.608 190.006 144.089 189.579 144.49C189.162 144.891 188.659 145.091 188.071 145.091ZM198.097 141.818V168H195.08V141.818H198.097ZM209.401 168.46C208.157 168.46 207.028 168.226 206.013 167.757C204.999 167.28 204.194 166.594 203.597 165.699C203.001 164.795 202.702 163.705 202.702 162.426C202.702 161.301 202.924 160.389 203.367 159.69C203.81 158.983 204.403 158.429 205.144 158.028C205.885 157.628 206.704 157.33 207.599 157.134C208.502 156.929 209.41 156.767 210.322 156.648C211.515 156.494 212.482 156.379 213.224 156.303C213.974 156.217 214.519 156.077 214.86 155.881C215.209 155.685 215.384 155.344 215.384 154.858V154.756C215.384 153.494 215.039 152.514 214.349 151.815C213.667 151.116 212.631 150.767 211.242 150.767C209.802 150.767 208.672 151.082 207.854 151.713C207.036 152.344 206.461 153.017 206.128 153.733L203.265 152.71C203.776 151.517 204.458 150.588 205.31 149.923C206.171 149.25 207.108 148.781 208.123 148.517C209.145 148.244 210.151 148.108 211.14 148.108C211.77 148.108 212.495 148.185 213.313 148.338C214.14 148.483 214.937 148.786 215.704 149.246C216.479 149.706 217.123 150.401 217.634 151.33C218.145 152.259 218.401 153.503 218.401 155.062V168H215.384V165.341H215.231C215.026 165.767 214.685 166.223 214.208 166.709C213.731 167.195 213.096 167.608 212.303 167.949C211.51 168.29 210.543 168.46 209.401 168.46ZM209.861 165.75C211.055 165.75 212.06 165.516 212.878 165.047C213.705 164.578 214.327 163.973 214.745 163.232C215.171 162.49 215.384 161.71 215.384 160.892V158.131C215.256 158.284 214.975 158.425 214.54 158.553C214.114 158.672 213.62 158.778 213.057 158.872C212.503 158.957 211.962 159.034 211.434 159.102C210.914 159.162 210.492 159.213 210.168 159.256C209.384 159.358 208.651 159.524 207.969 159.754C207.296 159.976 206.751 160.312 206.333 160.764C205.924 161.207 205.719 161.812 205.719 162.58C205.719 163.628 206.107 164.42 206.883 164.957C207.667 165.486 208.66 165.75 209.861 165.75ZM224.317 168V141.818H227.334V151.483H227.59C227.811 151.142 228.118 150.707 228.51 150.179C228.911 149.642 229.482 149.165 230.223 148.747C230.973 148.321 231.987 148.108 233.266 148.108C234.919 148.108 236.377 148.521 237.638 149.348C238.899 150.175 239.884 151.347 240.591 152.864C241.298 154.381 241.652 156.17 241.652 158.233C241.652 160.312 241.298 162.115 240.591 163.641C239.884 165.158 238.904 166.334 237.651 167.169C236.398 167.996 234.953 168.409 233.317 168.409C232.056 168.409 231.046 168.2 230.287 167.783C229.529 167.357 228.945 166.875 228.536 166.338C228.127 165.793 227.811 165.341 227.59 164.983H227.232V168H224.317ZM227.283 158.182C227.283 159.665 227.5 160.973 227.935 162.107C228.369 163.232 229.004 164.114 229.84 164.753C230.675 165.384 231.698 165.699 232.908 165.699C234.169 165.699 235.222 165.366 236.066 164.702C236.918 164.028 237.557 163.125 237.983 161.991C238.418 160.849 238.635 159.58 238.635 158.182C238.635 156.801 238.422 155.557 237.996 154.449C237.578 153.332 236.943 152.45 236.091 151.803C235.247 151.146 234.186 150.818 232.908 150.818C231.681 150.818 230.649 151.129 229.814 151.751C228.979 152.365 228.348 153.226 227.922 154.334C227.496 155.433 227.283 156.716 227.283 158.182ZM249.284 141.818V168H246.267V141.818H249.284ZM263.043 168.409C261.151 168.409 259.519 167.991 258.147 167.156C256.783 166.312 255.731 165.136 254.989 163.628C254.256 162.111 253.89 160.347 253.89 158.335C253.89 156.324 254.256 154.551 254.989 153.017C255.731 151.474 256.762 150.273 258.083 149.412C259.412 148.543 260.964 148.108 262.736 148.108C263.759 148.108 264.769 148.278 265.766 148.619C266.763 148.96 267.671 149.514 268.489 150.281C269.307 151.04 269.959 152.045 270.445 153.298C270.931 154.551 271.174 156.094 271.174 157.926V159.205H256.037V156.597H268.106C268.106 155.489 267.884 154.5 267.441 153.631C267.006 152.761 266.384 152.075 265.574 151.572C264.773 151.07 263.827 150.818 262.736 150.818C261.535 150.818 260.495 151.116 259.617 151.713C258.748 152.301 258.079 153.068 257.61 154.014C257.141 154.96 256.907 155.974 256.907 157.057V158.795C256.907 160.278 257.162 161.536 257.674 162.567C258.194 163.589 258.914 164.369 259.834 164.906C260.755 165.435 261.824 165.699 263.043 165.699C263.836 165.699 264.552 165.588 265.191 165.366C265.839 165.136 266.397 164.795 266.866 164.344C267.334 163.884 267.697 163.312 267.952 162.631L270.867 163.449C270.56 164.438 270.045 165.307 269.32 166.057C268.596 166.798 267.701 167.378 266.635 167.795C265.57 168.205 264.373 168.409 263.043 168.409ZM286.297 168V141.818H295.451C297.275 141.818 298.779 142.134 299.964 142.764C301.148 143.386 302.03 144.226 302.61 145.283C303.189 146.331 303.479 147.494 303.479 148.773C303.479 149.898 303.279 150.827 302.878 151.56C302.486 152.293 301.966 152.872 301.319 153.298C300.68 153.724 299.985 154.04 299.235 154.244V154.5C300.036 154.551 300.841 154.832 301.651 155.344C302.461 155.855 303.138 156.588 303.684 157.543C304.229 158.497 304.502 159.665 304.502 161.045C304.502 162.358 304.204 163.538 303.607 164.587C303.01 165.635 302.069 166.466 300.782 167.08C299.495 167.693 297.82 168 295.758 168H286.297ZM289.468 165.188H295.758C297.829 165.188 299.299 164.787 300.168 163.986C301.046 163.176 301.485 162.196 301.485 161.045C301.485 160.159 301.259 159.341 300.807 158.591C300.356 157.832 299.712 157.227 298.877 156.776C298.042 156.315 297.053 156.085 295.911 156.085H289.468V165.188ZM289.468 153.324H295.349C296.303 153.324 297.164 153.136 297.931 152.761C298.706 152.386 299.32 151.858 299.772 151.176C300.232 150.494 300.462 149.693 300.462 148.773C300.462 147.622 300.062 146.646 299.26 145.845C298.459 145.036 297.189 144.631 295.451 144.631H289.468V153.324ZM312.319 141.818V168H309.302V141.818H312.319ZM325.823 168.409C324.05 168.409 322.494 167.987 321.156 167.143C319.827 166.3 318.787 165.119 318.037 163.602C317.296 162.085 316.925 160.312 316.925 158.284C316.925 156.239 317.296 154.453 318.037 152.928C318.787 151.402 319.827 150.217 321.156 149.374C322.494 148.53 324.05 148.108 325.823 148.108C327.595 148.108 329.146 148.53 330.476 149.374C331.814 150.217 332.854 151.402 333.595 152.928C334.345 154.453 334.72 156.239 334.72 158.284C334.72 160.312 334.345 162.085 333.595 163.602C332.854 165.119 331.814 166.3 330.476 167.143C329.146 167.987 327.595 168.409 325.823 168.409ZM325.823 165.699C327.169 165.699 328.277 165.354 329.146 164.663C330.016 163.973 330.659 163.065 331.077 161.94C331.494 160.815 331.703 159.597 331.703 158.284C331.703 156.972 331.494 155.749 331.077 154.615C330.659 153.482 330.016 152.565 329.146 151.866C328.277 151.168 327.169 150.818 325.823 150.818C324.476 150.818 323.368 151.168 322.499 151.866C321.629 152.565 320.986 153.482 320.568 154.615C320.151 155.749 319.942 156.972 319.942 158.284C319.942 159.597 320.151 160.815 320.568 161.94C320.986 163.065 321.629 163.973 322.499 164.663C323.368 165.354 324.476 165.699 325.823 165.699ZM347.303 168.409C345.53 168.409 343.975 167.987 342.637 167.143C341.307 166.3 340.268 165.119 339.518 163.602C338.776 162.085 338.405 160.312 338.405 158.284C338.405 156.239 338.776 154.453 339.518 152.928C340.268 151.402 341.307 150.217 342.637 149.374C343.975 148.53 345.53 148.108 347.303 148.108C349.076 148.108 350.627 148.53 351.956 149.374C353.295 150.217 354.334 151.402 355.076 152.928C355.826 154.453 356.201 156.239 356.201 158.284C356.201 160.312 355.826 162.085 355.076 163.602C354.334 165.119 353.295 166.3 351.956 167.143C350.627 167.987 349.076 168.409 347.303 168.409ZM347.303 165.699C348.65 165.699 349.758 165.354 350.627 164.663C351.496 163.973 352.14 163.065 352.557 161.94C352.975 160.815 353.184 159.597 353.184 158.284C353.184 156.972 352.975 155.749 352.557 154.615C352.14 153.482 351.496 152.565 350.627 151.866C349.758 151.168 348.65 150.818 347.303 150.818C345.956 150.818 344.849 151.168 343.979 151.866C343.11 152.565 342.466 153.482 342.049 154.615C341.631 155.749 341.422 156.972 341.422 158.284C341.422 159.597 341.631 160.815 342.049 161.94C342.466 163.065 343.11 163.973 343.979 164.663C344.849 165.354 345.956 165.699 347.303 165.699ZM368.221 168.409C366.585 168.409 365.14 167.996 363.887 167.169C362.634 166.334 361.654 165.158 360.947 163.641C360.24 162.115 359.886 160.312 359.886 158.233C359.886 156.17 360.24 154.381 360.947 152.864C361.654 151.347 362.639 150.175 363.9 149.348C365.161 148.521 366.619 148.108 368.272 148.108C369.551 148.108 370.561 148.321 371.302 148.747C372.052 149.165 372.623 149.642 373.015 150.179C373.416 150.707 373.727 151.142 373.948 151.483H374.204V141.818H377.221V168H374.306V164.983H373.948C373.727 165.341 373.411 165.793 373.002 166.338C372.593 166.875 372.009 167.357 371.251 167.783C370.492 168.2 369.482 168.409 368.221 168.409ZM368.63 165.699C369.84 165.699 370.863 165.384 371.698 164.753C372.534 164.114 373.169 163.232 373.603 162.107C374.038 160.973 374.255 159.665 374.255 158.182C374.255 156.716 374.042 155.433 373.616 154.334C373.19 153.226 372.559 152.365 371.724 151.751C370.889 151.129 369.857 150.818 368.63 150.818C367.352 150.818 366.286 151.146 365.434 151.803C364.59 152.45 363.955 153.332 363.529 154.449C363.112 155.557 362.903 156.801 362.903 158.182C362.903 159.58 363.116 160.849 363.542 161.991C363.977 163.125 364.616 164.028 365.46 164.702C366.312 165.366 367.369 165.699 368.63 165.699Z" fill="black"/>
</svg>
