<svg width="226" height="170" viewBox="0 0 226 170" fill="none" xmlns="http://www.w3.org/2000/svg">
<g clip-path="url(#clip0_106_713)">
<path d="M51.3638 169.164V82.0413L24.2835 57.3226L0 43.6055V153.789C0 162.296 6.90801 169.164 15.4095 169.164H51.3638Z" fill="#4285F4"/>
<path d="M174.636 169.163H210.591C219.118 169.163 226 162.27 226 153.788V43.6055L198.495 59.3168L174.636 82.0404V169.163Z" fill="#34A853"/>
<path d="M51.3636 82.0404L47.6787 47.999L51.3636 15.418L113 61.5417L174.636 15.418L178.758 46.2399L174.636 82.0404L113 128.164L51.3636 82.0404Z" fill="#EA4335"/>
<path d="M174.636 15.4178V82.0401L226 43.6043V23.1048C226 4.09206 204.248 -6.74654 189.019 4.65579L174.636 15.4178Z" fill="#FBBC04"/>
<path d="M0 43.6047L23.6232 61.2829L51.3638 82.0406V15.4182L36.981 4.65619C21.726 -6.74702 0 4.09246 0 23.1043V43.6038V43.6047Z" fill="#C5221F"/>
</g>
<defs>
<clipPath id="clip0_106_713">
<rect width="226" height="170" fill="white"/>
</clipPath>
</defs>
</svg>
