<svg width="105" height="118" viewBox="0 0 105 118" fill="none" xmlns="http://www.w3.org/2000/svg">
<path d="M52.4859 39.325C42.8458 39.325 34.9788 48.1662 34.9788 59C34.9788 69.8338 42.8458 78.675 52.4859 78.675C62.126 78.675 69.993 69.8338 69.993 59C69.993 48.1662 62.126 39.325 52.4859 39.325ZM104.994 59C104.994 50.8525 105.06 42.7788 104.653 34.646C104.246 25.1997 102.328 16.816 96.1815 9.90833C90.0218 2.9859 82.575 0.845708 74.1695 0.388149C66.9197 -0.0694098 59.7356 0.00439027 52.499 0.00439027C45.2493 0.00439027 38.0652 -0.0694098 30.8285 0.388149C22.423 0.845708 14.9631 3.00066 8.81657 9.90833C2.6569 16.8308 0.752523 25.1997 0.345381 34.646C-0.0617618 42.7935 0.00390652 50.8673 0.00390652 59C0.00390652 67.1327 -0.0617618 75.2212 0.345381 83.354C0.752523 92.8003 2.67003 101.184 8.81657 108.092C14.9762 115.014 22.423 117.154 30.8285 117.612C38.0783 118.069 45.2624 117.996 52.499 117.996C59.7488 117.996 66.9329 118.069 74.1695 117.612C82.575 117.154 90.0349 114.999 96.1815 108.092C102.341 101.169 104.246 92.8003 104.653 83.354C105.073 75.2212 104.994 67.1475 104.994 59ZM52.4859 89.2727C37.5792 89.2727 25.5488 75.7526 25.5488 59C25.5488 42.2474 37.5792 28.7273 52.4859 28.7273C67.3926 28.7273 79.423 42.2474 79.423 59C79.423 75.7526 67.3926 89.2727 52.4859 89.2727ZM80.5262 34.5575C77.0458 34.5575 74.2352 31.3989 74.2352 27.4875C74.2352 23.5761 77.0458 20.4174 80.5262 20.4174C84.0066 20.4174 86.8172 23.5761 86.8172 27.4875C86.8182 28.4162 86.6562 29.3361 86.3404 30.1944C86.0246 31.0527 85.5613 31.8326 84.9769 32.4893C84.3925 33.1461 83.6986 33.6668 82.9349 34.0217C82.1712 34.3766 81.3526 34.5587 80.5262 34.5575Z" fill="black"/>
</svg>
