<svg width="111" height="119" viewBox="0 0 111 119" fill="none" xmlns="http://www.w3.org/2000/svg">
<path d="M90.1875 0C95.9206 0 100.823 2.18218 104.894 6.54655C108.965 10.9109 111 16.1662 111 22.3125V96.6875C111 102.834 108.965 108.089 104.894 112.453C100.823 116.818 95.9206 119 90.1875 119H76.6016V72.903H90.9824L93.1504 54.929H76.6016V43.4629C76.6016 40.5705 77.1676 38.4013 78.2998 36.9551C79.432 35.5089 81.6361 34.7858 84.9121 34.7858L93.7285 34.7083V18.6712C90.6934 18.2064 86.4056 17.974 80.8652 17.974C74.3131 17.974 69.0739 20.0399 65.1475 24.1719C61.221 28.3038 59.2578 34.1402 59.2578 41.681V54.929H44.8047V72.903H59.2578V119H20.8125C15.0794 119 10.1774 116.818 6.10644 112.453C2.03548 108.089 0 102.834 0 96.6875V22.3125C0 16.1662 2.03548 10.9109 6.10644 6.54655C10.1774 2.18218 15.0794 0 20.8125 0H90.1875Z" fill="black"/>
</svg>
